HIERARCHY
ROOT hip
{
  OFFSET 0 0 0
  CHANNELS 6 Xposition Yposition Zposition Zrotation Yrotation Xrotation
  JOINT abdomen
  {
    OFFSET 0 20.6881 -0.73152
    CHANNELS 3 Zrotation Xrotation Yrotation
    JOINT chest
    {
      OFFSET 0 11.7043 -0.48768
      CHANNELS 3 Zrotation Xrotation Yrotation
      JOINT neck
      {
        OFFSET 0 22.1894 -2.19456
        CHANNELS 3 Zrotation Xrotation Yrotation
        JOINT head
        {
          OFFSET -0.24384 7.07133 1.2192
          CHANNELS 3 Zrotation Xrotation Yrotation
          JOINT leftEye
          {
            OFFSET 4.14528 8.04674 8.04672
            CHANNELS 3 Zrotation Xrotation Yrotation
            End Site
            {
              OFFSET 1 0 0
            }
          }
          JOINT rightEye
          {
            OFFSET -3.6576 8.04674 8.04672
            CHANNELS 3 Zrotation Xrotation Yrotation
            End Site
            {
              OFFSET 1 0 0
            }
          }
        }
      }
      JOINT rCollar
      {
        OFFSET -2.68224 19.2634 -4.8768
        CHANNELS 3 Zrotation Xrotation Yrotation
        JOINT rShldr
        {
          OFFSET -8.77824 -1.95073 1.46304
          CHANNELS 3 Zrotation Xrotation Yrotation
          JOINT rForeArm
          {
            OFFSET -28.1742 -1.7115 0.48768
            CHANNELS 3 Zrotation Xrotation Yrotation
            JOINT rHand
            {
              OFFSET -22.5879 0.773209 7.07136
              CHANNELS 3 Zrotation Xrotation Yrotation
              JOINT rThumb1
              {
                OFFSET -1.2192 -0.487915 3.41376
                CHANNELS 3 Zrotation Xrotation Yrotation
                JOINT rThumb2
                {
                  OFFSET -3.37035 -0.52449 3.41376
                  CHANNELS 3 Zrotation Xrotation Yrotation
                  End Site
                  {
                    OFFSET -1.78271 -1.18214 1.43049
                  }
                }
              }
              JOINT rIndex1
              {
                OFFSET -7.75947 0.938293 5.60832
                CHANNELS 3 Zrotation Xrotation Yrotation
                JOINT rIndex2
                {
                  OFFSET -2.54057 -0.884171 1.56538
                  CHANNELS 3 Zrotation Xrotation Yrotation
                  End Site
                  {
                    OFFSET -1.62519 -0.234802 1.16502
                  }
                }
              }
              JOINT rMid1
              {
                OFFSET -8.24714 1.18213 3.41376
                CHANNELS 3 Zrotation Xrotation Yrotation
                JOINT rMid2
                {
                  OFFSET -3.10165 -0.590103 1.0647
                  CHANNELS 3 Zrotation Xrotation Yrotation
                  End Site
                  {
                    OFFSET -2.48547 -0.328903 0.83742
                  }
                }
              }
              JOINT rRing1
              {
                OFFSET -8.82822 0.546677 1.51678
                CHANNELS 3 Zrotation Xrotation Yrotation
                JOINT rRing2
                {
                  OFFSET -2.60934 -0.819778 -0.0198488
                  CHANNELS 3 Zrotation Xrotation Yrotation
                  End Site
                  {
                    OFFSET -2.33842 -0.294052 0.168128
                  }
                }
              }
              JOINT rPinky1
              {
                OFFSET -8.27202 -0.0477905 -0.4584
                CHANNELS 3 Zrotation Xrotation Yrotation
                JOINT rPinky2
                {
                  OFFSET -1.82734 -0.647385 -0.700984
                  CHANNELS 3 Zrotation Xrotation Yrotation
                  End Site
                  {
                    OFFSET -1.69225 -0.51767 -0.607171
                  }
                }
              }
            }
          }
        }
      }
      JOINT lCollar
      {
        OFFSET 2.68224 19.2634 -4.8768
        CHANNELS 3 Zrotation Xrotation Yrotation
        JOINT lShldr
        {
          OFFSET 8.77824 -1.95073 1.46304
          CHANNELS 3 Zrotation Xrotation Yrotation
          JOINT lForeArm
          {
            OFFSET 28.1742 -1.7115 0.48768
            CHANNELS 3 Zrotation Xrotation Yrotation
            JOINT lHand
            {
              OFFSET 22.5879 0.773209 7.07136
              CHANNELS 3 Zrotation Xrotation Yrotation
              JOINT lThumb1
              {
                OFFSET 1.2192 -0.487915 3.41376
                CHANNELS 3 Zrotation Xrotation Yrotation
                JOINT lThumb2
                {
                  OFFSET 3.37035 -0.52449 3.41376
                  CHANNELS 3 Zrotation Xrotation Yrotation
                  End Site
                  {
                    OFFSET 1.78271 -1.18214 1.43049
                  }
                }
              }
              JOINT lIndex1
              {
                OFFSET 7.75947 0.938293 5.60832
                CHANNELS 3 Zrotation Xrotation Yrotation
                JOINT lIndex2
                {
                  OFFSET 2.54057 -0.884171 1.56538
                  CHANNELS 3 Zrotation Xrotation Yrotation
                  End Site
                  {
                    OFFSET 1.62519 -0.234802 1.16502
                  }
                }
              }
              JOINT lMid1
              {
                OFFSET 8.24714 1.18213 3.41376
                CHANNELS 3 Zrotation Xrotation Yrotation
                JOINT lMid2
                {
                  OFFSET 3.10165 -0.590103 1.0647
                  CHANNELS 3 Zrotation Xrotation Yrotation
                  End Site
                  {
                    OFFSET 2.48547 -0.328903 0.83742
                  }
                }
              }
              JOINT lRing1
              {
                OFFSET 8.82822 0.546677 1.51678
                CHANNELS 3 Zrotation Xrotation Yrotation
                JOINT lRing2
                {
                  OFFSET 2.60934 -0.819778 -0.0198488
                  CHANNELS 3 Zrotation Xrotation Yrotation
                  End Site
                  {
                    OFFSET 2.33842 -0.294052 0.168128
                  }
                }
              }
              JOINT lPinky1
              {
                OFFSET 8.27202 -0.0477905 -0.4584
                CHANNELS 3 Zrotation Xrotation Yrotation
                JOINT lPinky2
                {
                  OFFSET 1.82734 -0.647385 -0.700984
                  CHANNELS 3 Zrotation Xrotation Yrotation
                  End Site
                  {
                    OFFSET 1.69225 -0.51767 -0.607171
                  }
                }
              }
            }
          }
        }
      }
    }
  }
  JOINT rButtock
  {
    OFFSET -8.77824 4.35084 1.2192
    CHANNELS 3 Zrotation Xrotation Yrotation
    JOINT rThigh
    {
      OFFSET 0 -1.70687 -2.19456
      CHANNELS 3 Zrotation Xrotation Yrotation
      JOINT rShin
      {
        OFFSET 0 -36.8199 0.73152
        CHANNELS 3 Zrotation Xrotation Yrotation
        JOINT rFoot
        {
          OFFSET 0.73152 -45.1104 -5.12064
          CHANNELS 3 Zrotation Xrotation Yrotation
          End Site
          {
            OFFSET -1.1221 -3.69964 12.103
          }
        }
      }
    }
  }
  JOINT lButtock
  {
    OFFSET 8.77824 4.35084 1.2192
    CHANNELS 3 Zrotation Xrotation Yrotation
    JOINT lThigh
    {
      OFFSET 0 -1.70687 -2.19456
      CHANNELS 3 Zrotation Xrotation Yrotation
      JOINT lShin
      {
        OFFSET 0 -36.8199 0.73152
        CHANNELS 3 Zrotation Xrotation Yrotation
        JOINT lFoot
        {
          OFFSET -0.73152 -45.1104 -5.12064
          CHANNELS 3 Zrotation Xrotation Yrotation
          End Site
          {
            OFFSET 1.1221 -3.69964 12.103
          }
        }
      }
    }
  }
}
MOTION
Frames:	6
Frame Time:	0.00833333
0.0994651 84.9173 -156.7 0.0 0.0 0.0 -0.140626 -0.000295013 -0.00400526 -0.038767 -0.000394545 -0.00671565 3.72668e-15 7.95139e-16 -4.96962e-17 1.11661e-14 9.54166e-15 -1.50642e-16 -0.0 0.0 0.0 -0.0 0.0 0.0 1.88719e-15 3.88251e-19 4.96962e-17 4.05368e-14 -8.07563e-17 5.96354e-16 6.73284e-13 -2.02363e-13 -1.90833e-14 7.69563e-12 1.94362e-13 -8.90555e-14 1.81538e-11 -1.63268e-14 -2.29e-13 3.13388e-11 -2.8625e-14 -4.10292e-13 1.81582e-11 -1.51076e-14 -2.48083e-13 7.73091 5.47488 0.417314 1.81541e-11 -1.65985e-14 -2.3218e-13 2.90554 0.965183 0.102902 1.81562e-11 -1.65985e-14 -2.36156e-13 10.2786 0.731801 0.0259123 1.8152e-11 -1.43125e-14 -2.3218e-13 2.22167 -0.733487 -0.20892 1.79045e-15 0.0 -1.49089e-16 3.70157e-14 1.11816e-16 -1.39149e-15 6.71743e-13 2.02164e-13 -2.54444e-14 7.6945e-12 -1.9717e-13 -7.95139e-14 1.81508e-11 1.05027e-14 -2.44903e-13 3.13571e-11 1.27222e-14 -4.07111e-13 1.81471e-11 1.03368e-14 -2.3218e-13 -7.73091 5.47488 -0.417314 1.81514e-11 1.03368e-14 -2.38542e-13 -2.90554 0.965183 -0.102902 1.81442e-11 1.0138e-14 -2.36951e-13 -10.2786 0.731801 -0.0259123 1.81578e-11 1.31198e-14 -2.38542e-13 -2.22167 -0.733487 0.20892 -2.03217e-16 0.0 -3.88251e-19 0.415457 -2.89234 -0.0363696 -0.00657583 -0.313962 -0.0578457 -0.52169 3.20536 0.125419 2.03217e-16 0.0 3.88251e-19 -0.629347 -3.43714 0.049731 0.00497785 0.672915 0.0432302 0.523138 2.76331 -0.11651
3.2306 83.484 -158.656 -1.1345 36.961 0.7524 1.3796 1.17375 3.45577 0.855214 -0.0356017 0.991533 3.89359 5.44989 5.58782 -10.5387 -5.57861 10.3918 -0.0 0.0 0.0 -0.0 0.0 0.0 -4.8826e-15 -3.62894e-14 8.53804e-14 16.8742 2.97022 -2.37422 -7.3448 -4.336 10.1823 0.0238707 -3.43224 -0.47926 -3.649e-10 -1.20762e-09 7.09802e-10 -6.39591e-10 -2.08217e-09 1.22806e-09 -3.64895e-10 -1.20762e-09 7.09786e-10 7.73091 5.47488 0.417314 -3.649e-10 -1.20762e-09 7.09797e-10 2.90554 0.965183 0.102902 -3.64894e-10 -1.20762e-09 7.09795e-10 10.2786 0.731801 0.0259123 -3.64901e-10 -1.20762e-09 7.09799e-10 2.22167 -0.733487 -0.20892 -4.95568e-15 -3.62788e-14 8.51396e-14 -22.6707 -0.0279639 -1.70006 3.02324 -1.19917 -4.89458 -0.00295119 -1.20754 0.169574 -6.14336e-10 7.89554e-10 6.9742e-10 -1.0653e-09 1.3677e-09 1.20621e-09 -6.14341e-10 7.89556e-10 6.97433e-10 -7.73091 5.47488 -0.417314 -6.14335e-10 7.89554e-10 6.97423e-10 -2.90554 0.965183 -0.102902 -6.14342e-10 7.89554e-10 6.97424e-10 -10.2786 0.731801 -0.0259123 -6.1433e-10 7.89558e-10 6.9742e-10 -2.22167 -0.733487 0.20892 -2.03217e-16 0.0 -3.88251e-19 -0.174089 -3.09683 -4.3754 0.03326 6.90496 0.124803 -2.01356 -1.77401 -11.6413 2.03217e-16 0.0 3.88251e-19 1.07192 -7.80847 -2.70518 0.00741504 8.2654 -0.0508176 0.382389 -0.239349 -1.14526
3.25829 83.4774 -158.657 -0.9627 37.0939 0.9027 2.83546 2.3992 7.12621 1.79574 -0.0743445 2.04919 6.86394 11.0341 11.6533 -19.5298 -10.8434 21.6691 -0.0 0.0 0.0 -0.0 0.0 0.0 -1.10855e-14 -7.60958e-14 1.74042e-13 34.9769 6.08359 -4.91453 -13.4715 -8.47851 21.1484 -0.0138729 -7.07894 -0.994349 -7.80413e-10 -2.48264e-09 1.4654e-09 -1.36721e-09 -4.28038e-09 2.53533e-09 -7.80407e-10 -2.48264e-09 1.46539e-09 7.73091 5.47488 0.417314 -7.80413e-10 -2.48263e-09 1.4654e-09 2.90554 0.965183 0.102902 -7.80404e-10 -2.48264e-09 1.46539e-09 10.2786 0.731801 0.0259123 -7.80414e-10 -2.48264e-09 1.4654e-09 2.22167 -0.733487 -0.20892 -1.11326e-14 -7.60729e-14 1.73756e-13 -46.6262 -0.050783 -3.50225 5.99715 -2.43759 -10.0754 0.00172796 -2.49297 0.350342 -1.32249e-09 1.62897e-09 1.4344e-09 -2.29299e-09 2.82175e-09 2.48074e-09 -1.32249e-09 1.62897e-09 1.43441e-09 -7.73091 5.47488 -0.417314 -1.32249e-09 1.62897e-09 1.4344e-09 -2.90554 0.965183 -0.102902 -1.32249e-09 1.62897e-09 1.4344e-09 -10.2786 0.731801 -0.0259123 -1.32248e-09 1.62897e-09 1.43439e-09 -2.22167 -0.733487 0.20892 -2.03217e-16 0.0 -3.88251e-19 -0.834974 -3.29482 -8.96572 0.024 14.5373 0.326478 -5.75919 -6.494 -24.2285 2.03217e-16 0.0 3.88251e-19 2.40142 -12.3889 -5.69782 0.0379985 16.2894 -0.155372 0.116558 -3.40997 -2.23513
3.2654 83.475 -158.637 -0.9543 37.1923 0.9181 3.99662 3.47053 10.3924 2.64685 -0.105888 2.98803 8.43869 15.7171 17.3558 -25.7176 -14.5207 32.1702 -0.0 0.0 0.0 -0.0 0.0 0.0 -1.84222e-14 -1.08869e-13 2.56042e-13 51.3665 8.84912 -7.19924 -17.5799 -11.3652 31.1347 -0.103024 -10.2938 -1.45869 -1.13101e-09 -3.62283e-09 2.12987e-09 -1.98145e-09 -6.24645e-09 3.68501e-09 -1.131e-09 -3.62283e-09 2.12985e-09 7.73091 5.47488 0.417314 -1.13101e-09 -3.62282e-09 2.12986e-09 2.90554 0.965183 0.102902 -1.131e-09 -3.62284e-09 2.12986e-09 10.2786 0.731801 0.0259123 -1.13101e-09 -3.62284e-09 2.12986e-09 2.22167 -0.733487 -0.20892 -1.84479e-14 -1.08836e-13 2.55717e-13 -68.0171 -0.0835965 -5.1002 8.46157 -3.49266 -14.7084 0.0126259 -3.62251 0.509627 -1.87931e-09 2.36864e-09 2.09275e-09 -3.2586e-09 4.10306e-09 3.61944e-09 -1.87932e-09 2.36865e-09 2.09276e-09 -7.73091 5.47488 -0.417314 -1.87931e-09 2.36864e-09 2.09275e-09 -2.90554 0.965183 -0.102902 -1.87931e-09 2.36864e-09 2.09275e-09 -10.2786 0.731801 -0.0259123 -1.87931e-09 2.36865e-09 2.09274e-09 -2.22167 -0.733487 0.20892 -2.03217e-16 0.0 -3.88251e-19 -1.44411 -3.44178 -13.0583 -0.0331295 21.342 0.523268 -10.8009 -9.66063 -35.7398 2.03217e-16 0.0 3.88251e-19 3.17045 -16.4052 -8.48744 0.0923042 23.4502 -0.25869 -0.223827 -6.23504 -3.22208
3.28155 83.4762 -158.595 -0.9203 37.2806 0.9096 4.71973 4.20585 12.6317 3.27159 -0.119569 3.62983 8.82271 18.7442 21.5878 -28.9607 -16.32 39.7899 -0.0 0.0 0.0 -0.0 0.0 0.0 -2.85933e-14 -1.24059e-13 3.21385e-13 62.9457 10.8043 -8.7725 -19.7599 -12.7127 38.1001 -0.193392 -12.432 -1.77544 -1.3193e-09 -4.42597e-09 2.56649e-09 -2.31225e-09 -7.63211e-09 4.44069e-09 -1.3193e-09 -4.42597e-09 2.56648e-09 7.73091 5.47488 0.417314 -1.3193e-09 -4.42596e-09 2.56648e-09 2.90554 0.965183 0.102902 -1.31929e-09 -4.42598e-09 2.56648e-09 10.2786 0.731801 0.0259123 -1.3193e-09 -4.42598e-09 2.56648e-09 2.22167 -0.733487 -0.20892 -2.86091e-14 -1.24023e-13 3.21037e-13 -82.9946 -0.141522 -6.18756 10.0784 -4.18916 -17.9486 0.0233976 -4.36244 0.614301 -2.05781e-09 2.85896e-09 2.55455e-09 -3.56899e-09 4.95252e-09 4.41856e-09 -2.05781e-09 2.85897e-09 2.55456e-09 -7.73091 5.47488 -0.417314 -2.0578e-09 2.85896e-09 2.55454e-09 -2.90554 0.965183 -0.102902 -2.05781e-09 2.85897e-09 2.55454e-09 -10.2786 0.731801 -0.0259123 -2.05781e-09 2.85897e-09 2.55453e-09 -2.22167 -0.733487 0.20892 -2.03217e-16 0.0 -3.88251e-19 -1.85851 -3.51052 -15.903 -0.104151 26.0787 0.6756 -15.1024 -11.0251 -43.9276 2.03217e-16 0.0 3.88251e-19 3.47234 -19.1445 -10.528 0.147834 28.4533 -0.339937 -0.522109 -8.20582 -3.92995
3.29162 83.4771 -158.552 -0.9136 37.3601 0.8943 4.96341 4.50848 13.4073 3.58631 -0.105685 3.85146 8.57002 19.8834 23.3991 -29.6278 -16.923 42.9849 -0.0 0.0 0.0 -0.0 0.0 0.0 -4.66449e-14 -1.12751e-13 3.76458e-13 67.5385 11.684 -9.29 -20.411 -12.9798 40.6038 -0.228131 -13.0709 -1.87198 -1.28607e-09 -4.90935e-09 2.75122e-09 -2.25674e-09 -8.4682e-09 4.76107e-09 -1.28606e-09 -4.90935e-09 2.75122e-09 7.73091 5.47488 0.417314 -1.28607e-09 -4.90934e-09 2.75122e-09 2.90554 0.965183 0.102902 -1.28605e-09 -4.90935e-09 2.75122e-09 10.2786 0.731801 0.0259123 -1.28607e-09 -4.90936e-09 2.75122e-09 2.22167 -0.733487 -0.20892 -4.66684e-14 -1.12719e-13 3.76105e-13 -89.004 -0.254669 -6.55746 10.693 -4.4535 -19.2266 0.0270908 -4.55185 0.641168 -1.64949e-09 3.078e-09 2.82714e-09 -2.86349e-09 5.33223e-09 4.89129e-09 -1.6495e-09 3.07801e-09 2.82715e-09 -7.73091 5.47488 -0.417314 -1.64949e-09 3.078e-09 2.82714e-09 -2.90554 0.965183 -0.102902 -1.6495e-09 3.07801e-09 2.82714e-09 -10.2786 0.731801 -0.0259123 -1.64949e-09 3.07801e-09 2.82713e-09 -2.22167 -0.733487 0.20892 -2.03217e-16 0.0 -3.88251e-19 -1.97265 -3.49489 -16.9978 -0.140172 27.9208 0.739602 -16.9368 -11.3198 -47.2037 2.03217e-16 0.0 3.88251e-19 3.55891 -20.1878 -11.3606 0.174436 30.4353 -0.374764 -0.658283 -8.98757 -4.2305
